<?xml version="1.0" encoding="utf-8"?>
<!-- Generator: Adobe Illustrator 17.1.0, SVG Export Plug-In . SVG Version: 6.00 Build 0)  -->
<!DOCTYPE svg PUBLIC "-//W3C//DTD SVG 1.1//EN" "http://www.w3.org/Graphics/SVG/1.1/DTD/svg11.dtd">
<svg version="1.1" id="Layer_1" xmlns="http://www.w3.org/2000/svg" xmlns:xlink="http://www.w3.org/1999/xlink" x="0px" y="0px"
	 viewBox="0 0 400 1001" enable-background="new 0 0 400 1001" xml:space="preserve">
<g>
	<g>
		<path fill="#95D600" d="M26.8,27.8c-2.3,0.6-4.6,1.2-6.8,1.9c1-0.2,2.1-0.6,3.2-0.8c18.6-4.1,35.4,0.3,37.6,9.9
			c1.8,8.3-8.1,17.7-23.2,22.7c16.9-4.5,28.6-14.9,26.8-23.8C62.2,28.2,45.4,23.8,26.8,27.8z"/>
		<path fill="#95D600" d="M40.7,40.4c0-8.3,6.4-15.6,16.3-20.4c-11.6,4.3-19.2,12-19.2,20.6c0,10.4,10.9,19.3,26.4,22.8
			C50.3,59.4,40.7,50.5,40.7,40.4z"/>
	</g>
	<g>
		<path fill="#676767" d="M85.2,51.5c-1.9,0.8-4.2,1.2-6.2,1.2c-7.1,0-9.8-4.8-9.8-11.2c0-6.5,3.7-11.2,9-11.2c6,0,8.6,4.9,8.6,10.6
			v1.2H72.1c0,4.5,2.5,8.2,7,8.2c1.9,0,4.8-0.8,6-1.6v2.7H85.2z M83.9,40c0-3.8-1.6-7.4-5.5-7.4c-3.9,0-6.4,3.9-6.4,7.4H83.9z"/>
		<path fill="#676767" d="M116.5,52.2V38c0-3-1.1-5.4-4.6-5.4c-2.9,0-5.8,2.4-5.8,7.8v11.9h-2.7V38c0-3-1.1-5.4-4.6-5.4
			c-2.9,0-5.8,2.4-5.8,7.8v11.9h-2.7V35.7c0-1.7,0-3.3-0.2-5h2.6v3.7h0.1c0.9-1.4,2.1-4.1,6.7-4.1c1.9,0,5,0.8,5.7,4.5h0.1
			c1-2.5,3.5-4.5,6.9-4.5c4.3,0,6.8,3,6.8,7.2v14.6H116.5z"/>
		<path fill="#676767" d="M124.1,30.8h2.7l-0.2,3.9h0.1c0.7-1.2,2.3-4.4,6.9-4.4c6.4,0,8.8,4.7,8.8,11.2c0,6.3-2.9,11.2-8.8,11.2
			c-3.3,0-5.4-1.3-6.7-4.1h-0.1v12.4h-2.7V30.8z M133.1,32.5c-4.7,0-6.4,5-6.4,9s1.7,9,6.4,9c5,0,6.4-4.8,6.4-9
			S138.2,32.5,133.1,32.5z"/>
		<path fill="#676767" d="M154.9,30.2c6.9,0,10,5.3,10,11.2s-3.1,11.2-10,11.2s-10-5.3-10-11.2C145,35.6,148,30.2,154.9,30.2z
			 M154.9,50.4c4.7,0,7.1-4,7.1-9s-2.5-9-7.1-9s-7.1,4-7.1,9C147.9,46.4,150.3,50.4,154.9,50.4z"/>
		<path fill="#676767" d="M190.8,52.2h-3.2l-5.9-18.5l0,0l-5.8,18.5h-3.2l-6.9-21.4h2.9l5.7,18.5h0.1l6-18.5h3.2l5.7,18.5h0.1
			l5.9-18.5h2.7L190.8,52.2z"/>
		<path fill="#676767" d="M214.6,51.5c-1.9,0.8-4.2,1.2-6.2,1.2c-7.1,0-9.8-4.8-9.8-11.2c0-6.5,3.7-11.2,9-11.2
			c6,0,8.6,4.9,8.6,10.6v1.2h-14.7c0,4.5,2.5,8.2,7,8.2c1.9,0,4.8-0.8,6-1.6v2.7H214.6z M213.3,40c0-3.8-1.6-7.4-5.5-7.4
			s-6.4,3.9-6.4,7.4H213.3z"/>
		<path fill="#676767" d="M220,35.5c0-2.3,0-3.2-0.2-4.8h2.7v4.1h0.1c1-2.4,2.8-4.7,5.6-4.7c0.7,0,1.3,0.1,1.9,0.2v2.9
			c-0.6-0.2-1.2-0.2-1.9-0.2c-4.2,0-5.4,4.7-5.4,8.5v10.5h-2.7V35.5H220z"/>
	</g>
	<g>
		<path fill="#799900" d="M144.3,64.6c-0.1-1.2-0.1-2.7-0.1-3.7l0,0c-0.3,1-0.7,2.1-1.1,3.2l-1.6,4.2h-0.9l-1.4-4.1
			c-0.4-1.2-0.8-2.3-1-3.3l0,0c0,1.1-0.1,2.5-0.1,3.8l-0.2,3.7h-1.1l0.6-8.5h1.4l1.4,4.1c0.3,1.1,0.7,2,0.9,2.9l0,0
			c0.2-0.9,0.6-1.8,0.9-2.9l1.6-4.1h1.4l0.6,8.5h-1.1L144.3,64.6z"/>
		<path fill="#799900" d="M148,65.5c0,1.6,1,2.1,2.1,2.1c0.8,0,1.3-0.1,1.7-0.3L152,68c-0.4,0.2-1.1,0.4-2,0.4c-1.9,0-3-1.2-3-3.1
			s1.1-3.3,2.9-3.3c2,0,2.6,1.8,2.6,2.9c0,0.2,0,0.4,0,0.6L148,65.5z M151.3,64.6c0-0.7-0.3-1.8-1.6-1.8c-1.1,0-1.7,1-1.8,1.8H151.3
			z"/>
		<path fill="#799900" d="M159.1,59.2v7.4c0,0.6,0,1.2,0,1.6h-0.9v-1.1l0,0c-0.3,0.7-1.1,1.2-2.1,1.2c-1.4,0-2.7-1.2-2.7-3.1
			c0-2,1.2-3.3,2.8-3.3c0.9,0,1.6,0.4,1.9,0.9l0,0v-3.7h1V59.2z M158,64.7c0-0.1,0-0.3,0-0.4c-0.1-0.7-0.8-1.3-1.7-1.3
			c-1.1,0-1.9,1-1.9,2.3c0,1.2,0.7,2.3,1.8,2.3c0.8,0,1.4-0.4,1.7-1.3c0-0.1,0-0.3,0-0.4v-1.1H158z"/>
		<path fill="#799900" d="M162.2,60.4c0,0.3-0.2,0.7-0.7,0.7s-0.7-0.3-0.7-0.7c0-0.4,0.3-0.7,0.7-0.7C162,59.7,162.2,60,162.2,60.4z
			 M161,68.3v-6.2h1.1v6.2H161z"/>
		<path fill="#799900" d="M168.4,66.8c0,0.6,0,1.1,0.1,1.4h-1l-0.1-0.8l0,0c-0.3,0.4-1,0.9-1.9,0.9c-1.2,0-1.9-0.9-1.9-1.8
			c0-1.4,1.3-2.3,3.7-2.3v-0.1c0-0.6-0.1-1.4-1.4-1.4c-0.6,0-1.2,0.2-1.6,0.4l-0.2-0.8c0.6-0.3,1.2-0.6,2-0.6c1.9,0,2.3,1.3,2.3,2.5
			L168.4,66.8L168.4,66.8z M167.2,65.1c-1.2,0-2.7,0.2-2.7,1.4c0,0.8,0.4,1.1,1.1,1.1c0.8,0,1.3-0.6,1.4-1c0-0.1,0.1-0.2,0.1-0.3
			L167.2,65.1L167.2,65.1z"/>
		<path fill="#799900" d="M177.5,64.6c-0.1-1.2-0.1-2.7-0.1-3.7l0,0c-0.3,1-0.7,2.1-1.1,3.2l-1.6,4.2h-0.9l-1.4-4.1
			c-0.4-1.2-0.8-2.3-1-3.3l0,0c0,1.1-0.1,2.5-0.1,3.8l-0.2,3.7h-1.1l0.6-8.5h1.4l1.4,4.1c0.3,1.1,0.7,2,0.9,2.9l0,0
			c0.2-0.9,0.6-1.8,0.9-2.9l1.6-4.1h1.4l0.6,8.5h-1.1L177.5,64.6z"/>
		<path fill="#799900" d="M184.9,66.8c0,0.6,0,1.1,0.1,1.4h-1l-0.1-0.8l0,0c-0.3,0.4-1,0.9-1.9,0.9c-1.2,0-1.9-0.9-1.9-1.8
			c0-1.4,1.3-2.3,3.7-2.3v-0.1c0-0.6-0.1-1.4-1.4-1.4c-0.6,0-1.2,0.2-1.6,0.4l-0.2-0.8c0.6-0.3,1.2-0.6,2-0.6c1.9,0,2.3,1.3,2.3,2.5
			L184.9,66.8L184.9,66.8z M183.9,65.1c-1.2,0-2.7,0.2-2.7,1.4c0,0.8,0.4,1.1,1.1,1.1c0.8,0,1.3-0.6,1.4-1c0-0.1,0.1-0.2,0.1-0.3
			L183.9,65.1L183.9,65.1z"/>
		<path fill="#799900" d="M186.8,64c0-0.8,0-1.3,0-1.9h1v1.2l0,0c0.3-0.8,1-1.3,1.7-1.3c0.1,0,0.2,0,0.3,0v1.1c-0.1,0-0.2,0-0.3,0
			c-0.8,0-1.3,0.6-1.6,1.4c0,0.1,0,0.3,0,0.6v3.3h-1.1V64z"/>
		<path fill="#799900" d="M192.1,65L192.1,65c0.2-0.2,0.4-0.4,0.6-0.7l1.8-2.1h1.3l-2.3,2.6l2.7,3.7h-1.3l-2.1-3l-0.6,0.7v2.3H191
			v-9.1h1.1V65z"/>
		<path fill="#799900" d="M197.6,65.5c0,1.6,1,2.1,2.1,2.1c0.8,0,1.3-0.1,1.7-0.3l0.2,0.8c-0.4,0.2-1.1,0.4-2,0.4
			c-1.9,0-3-1.2-3-3.1s1.1-3.3,2.9-3.3c2,0,2.6,1.8,2.6,2.9c0,0.2,0,0.4,0,0.6L197.6,65.5z M200.9,64.6c0-0.7-0.3-1.8-1.6-1.8
			c-1.1,0-1.7,1-1.8,1.8H200.9z"/>
		<path fill="#799900" d="M204.7,60.7v1.4h1.6V63h-1.6v3.3c0,0.8,0.2,1.2,0.9,1.2c0.3,0,0.4,0,0.7-0.1v0.9c-0.2,0.1-0.6,0.1-1,0.1
			c-0.6,0-0.9-0.2-1.2-0.4c-0.3-0.3-0.4-0.9-0.4-1.6v-3.3h-1v-1h1V61L204.7,60.7z"/>
		<path fill="#799900" d="M208.8,60.4c0,0.3-0.2,0.7-0.7,0.7s-0.7-0.3-0.7-0.7c0-0.4,0.3-0.7,0.7-0.7
			C208.6,59.7,208.8,60,208.8,60.4z M207.6,68.3v-6.2h1.1v6.2H207.6z"/>
		<path fill="#799900" d="M210.6,63.8c0-0.7,0-1.1,0-1.7h1l0.1,1l0,0c0.3-0.6,1-1.1,2-1.1c0.9,0,2.2,0.6,2.2,2.7v3.7h-1.1v-3.5
			c0-1-0.3-1.8-1.4-1.8c-0.8,0-1.3,0.6-1.6,1.1c0,0.1-0.1,0.3-0.1,0.6v3.7h-1.1V63.8z"/>
		<path fill="#799900" d="M223,67.5c0,1.4-0.3,2.3-0.9,2.8c-0.6,0.6-1.4,0.8-2.2,0.8c-0.8,0-1.6-0.2-2-0.6l0.3-0.9
			c0.4,0.2,1,0.4,1.8,0.4c1.1,0,2-0.6,2-2.1v-0.7l0,0c-0.3,0.6-1,1-2,1c-1.6,0-2.7-1.3-2.7-3c0-2.1,1.3-3.3,2.8-3.3
			c1.1,0,1.7,0.6,1.9,1.1l0,0v-0.9h1c0,0.4,0,1,0,1.7V67.5z M221.9,64.6c0-0.2,0-0.3-0.1-0.6c-0.2-0.7-0.8-1.2-1.6-1.2
			c-1.1,0-1.9,0.9-1.9,2.3c0,1.2,0.7,2.2,1.8,2.2c0.7,0,1.3-0.4,1.6-1.1c0.1-0.2,0.1-0.4,0.1-0.6v-1.1H221.9z"/>
	</g>
</g>
<g>
	<g>
		<path fill="#FFFFFF" d="M26.8,97.8c-2.3,0.6-4.6,1.2-6.8,1.9c1-0.2,2.1-0.6,3.2-0.8c18.6-4.1,35.4,0.3,37.6,9.9
			c1.8,8.3-8.1,17.7-23.2,22.7c16.9-4.5,28.6-14.9,26.8-23.8C62.2,98.2,45.4,93.8,26.8,97.8z"/>
		<path fill="#FFFFFF" d="M40.7,110.4c0-8.3,6.4-15.6,16.3-20.4c-11.6,4.3-19.2,12-19.2,20.6c0,10.4,10.9,19.3,26.4,22.8
			C50.3,129.4,40.7,120.5,40.7,110.4z"/>
	</g>
	<g>
		<path fill="#FFFFFF" d="M85.2,121.5c-1.9,0.8-4.2,1.2-6.2,1.2c-7.1,0-9.8-4.8-9.8-11.2c0-6.5,3.7-11.2,9-11.2
			c6,0,8.6,4.9,8.6,10.6v1.2H72.1c0,4.5,2.5,8.2,7,8.2c1.9,0,4.8-0.8,6-1.6v2.7H85.2z M83.9,110c0-3.8-1.6-7.4-5.5-7.4
			c-3.9,0-6.4,3.9-6.4,7.4H83.9z"/>
		<path fill="#FFFFFF" d="M116.5,122.2V108c0-3-1.1-5.4-4.6-5.4c-2.9,0-5.8,2.4-5.8,7.8v11.9h-2.7V108c0-3-1.1-5.4-4.6-5.4
			c-2.9,0-5.8,2.4-5.8,7.8v11.9h-2.7v-16.4c0-1.7,0-3.3-0.2-5h2.6v3.7h0.1c0.9-1.4,2.1-4.1,6.7-4.1c1.9,0,5,0.8,5.7,4.5h0.1
			c1-2.6,3.5-4.5,6.9-4.5c4.3,0,6.8,3,6.8,7.2v14.6H116.5z"/>
		<path fill="#FFFFFF" d="M124.1,100.8h2.7l-0.2,3.9h0.1c0.7-1.2,2.3-4.4,6.9-4.4c6.4,0,8.8,4.7,8.8,11.2c0,6.3-2.9,11.2-8.8,11.2
			c-3.3,0-5.4-1.3-6.7-4.1h-0.1v12.4h-2.7V100.8z M133.1,102.5c-4.7,0-6.4,5-6.4,9c0,4,1.7,9,6.4,9c5,0,6.4-4.8,6.4-9
			S138.2,102.5,133.1,102.5z"/>
		<path fill="#FFFFFF" d="M154.9,100.2c6.9,0,10,5.3,10,11.2c0,5.9-3.1,11.2-10,11.2s-10-5.3-10-11.2
			C145,105.6,148,100.2,154.9,100.2z M154.9,120.4c4.7,0,7.1-4,7.1-9c0-5-2.5-9-7.1-9s-7.1,4-7.1,9
			C147.9,116.4,150.3,120.4,154.9,120.4z"/>
		<path fill="#FFFFFF" d="M190.8,122.2h-3.2l-5.9-18.5l0,0l-5.8,18.5h-3.2l-6.9-21.4h2.9l5.7,18.5h0.1l6-18.5h3.2l5.7,18.5h0.1
			l5.9-18.5h2.7L190.8,122.2z"/>
		<path fill="#FFFFFF" d="M214.6,121.5c-1.9,0.8-4.2,1.2-6.2,1.2c-7.1,0-9.8-4.8-9.8-11.2c0-6.5,3.7-11.2,9-11.2
			c6,0,8.6,4.9,8.6,10.6v1.2h-14.7c0,4.5,2.5,8.2,7,8.2c1.9,0,4.8-0.8,6-1.6v2.7H214.6z M213.3,110c0-3.8-1.6-7.4-5.5-7.4
			s-6.4,3.9-6.4,7.4H213.3z"/>
		<path fill="#FFFFFF" d="M220,105.5c0-2.3,0-3.2-0.2-4.8h2.7v4.1h0.1c1-2.4,2.8-4.7,5.6-4.7c0.7,0,1.3,0.1,1.9,0.2v2.9
			c-0.6-0.2-1.2-0.2-1.9-0.2c-4.2,0-5.4,4.7-5.4,8.5v10.5h-2.7v-16.6H220z"/>
	</g>
	<g>
		<path fill="#FFFFFF" d="M144.3,134.6c-0.1-1.2-0.1-2.7-0.1-3.7l0,0c-0.3,1-0.7,2.1-1.1,3.2l-1.6,4.2h-0.9l-1.4-4.1
			c-0.4-1.2-0.8-2.3-1-3.3l0,0c0,1.1-0.1,2.6-0.1,3.8l-0.2,3.7h-1.1l0.6-8.5h1.4l1.4,4.1c0.3,1.1,0.7,2,0.9,2.9l0,0
			c0.2-0.9,0.6-1.8,0.9-2.9l1.6-4.1h1.4l0.6,8.5h-1.1L144.3,134.6z"/>
		<path fill="#FFFFFF" d="M148,135.5c0,1.6,1,2.1,2.1,2.1c0.8,0,1.3-0.1,1.7-0.3l0.2,0.8c-0.4,0.2-1.1,0.4-2,0.4c-1.9,0-3-1.2-3-3.1
			s1.1-3.3,2.9-3.3c2,0,2.6,1.8,2.6,2.9c0,0.2,0,0.4,0,0.6H148z M151.3,134.6c0-0.7-0.3-1.8-1.6-1.8c-1.1,0-1.7,1-1.8,1.8H151.3z"/>
		<path fill="#FFFFFF" d="M159.1,129.2v7.4c0,0.6,0,1.2,0,1.6h-0.9v-1.1l0,0c-0.3,0.7-1.1,1.2-2.1,1.2c-1.4,0-2.7-1.2-2.7-3.1
			c0-2,1.2-3.3,2.8-3.3c0.9,0,1.6,0.4,1.9,0.9l0,0v-3.7h1V129.2z M158,134.7c0-0.1,0-0.3,0-0.4c-0.1-0.7-0.8-1.3-1.7-1.3
			c-1.1,0-1.9,1-1.9,2.3c0,1.2,0.7,2.3,1.8,2.3c0.8,0,1.4-0.4,1.7-1.3c0-0.1,0-0.3,0-0.4v-1.1H158z"/>
		<path fill="#FFFFFF" d="M162.2,130.4c0,0.3-0.2,0.7-0.7,0.7s-0.7-0.3-0.7-0.7c0-0.4,0.3-0.7,0.7-0.7
			C162,129.7,162.2,130,162.2,130.4z M161,138.3v-6.2h1.1v6.2H161z"/>
		<path fill="#FFFFFF" d="M168.4,136.8c0,0.6,0,1.1,0.1,1.4h-1l-0.1-0.8l0,0c-0.3,0.4-1,0.9-1.9,0.9c-1.2,0-1.9-0.9-1.9-1.8
			c0-1.4,1.3-2.3,3.7-2.3v-0.1c0-0.6-0.1-1.4-1.4-1.4c-0.6,0-1.2,0.2-1.6,0.4l-0.2-0.8c0.6-0.3,1.2-0.6,2-0.6c1.9,0,2.3,1.3,2.3,2.5
			L168.4,136.8L168.4,136.8z M167.2,135.1c-1.2,0-2.7,0.2-2.7,1.4c0,0.8,0.4,1.1,1.1,1.1c0.8,0,1.3-0.6,1.4-1c0-0.1,0.1-0.2,0.1-0.3
			L167.2,135.1L167.2,135.1z"/>
		<path fill="#FFFFFF" d="M177.5,134.6c-0.1-1.2-0.1-2.7-0.1-3.7l0,0c-0.3,1-0.7,2.1-1.1,3.2l-1.6,4.2h-0.9l-1.4-4.1
			c-0.4-1.2-0.8-2.3-1-3.3l0,0c0,1.1-0.1,2.6-0.1,3.8l-0.2,3.7h-1.1l0.6-8.5h1.4l1.4,4.1c0.3,1.1,0.7,2,0.9,2.9l0,0
			c0.2-0.9,0.6-1.8,0.9-2.9l1.6-4.1h1.4l0.6,8.5h-1.1L177.5,134.6z"/>
		<path fill="#FFFFFF" d="M184.9,136.8c0,0.6,0,1.1,0.1,1.4h-1l-0.1-0.8l0,0c-0.3,0.4-1,0.9-1.9,0.9c-1.2,0-1.9-0.9-1.9-1.8
			c0-1.4,1.3-2.3,3.7-2.3v-0.1c0-0.6-0.1-1.4-1.4-1.4c-0.6,0-1.2,0.2-1.6,0.4l-0.2-0.8c0.6-0.3,1.2-0.6,2-0.6c1.9,0,2.3,1.3,2.3,2.5
			L184.9,136.8L184.9,136.8z M183.9,135.1c-1.2,0-2.7,0.2-2.7,1.4c0,0.8,0.4,1.1,1.1,1.1c0.8,0,1.3-0.6,1.4-1c0-0.1,0.1-0.2,0.1-0.3
			L183.9,135.1L183.9,135.1z"/>
		<path fill="#FFFFFF" d="M186.8,134c0-0.8,0-1.3,0-1.9h1v1.2l0,0c0.3-0.8,1-1.3,1.7-1.3c0.1,0,0.2,0,0.3,0v1.1c-0.1,0-0.2,0-0.3,0
			c-0.8,0-1.3,0.6-1.6,1.4c0,0.1,0,0.3,0,0.6v3.3h-1.1V134z"/>
		<path fill="#FFFFFF" d="M192.1,135L192.1,135c0.2-0.2,0.4-0.4,0.6-0.7l1.8-2.1h1.3l-2.3,2.6l2.7,3.7h-1.3l-2.1-3l-0.6,0.7v2.3H191
			v-9.1h1.1V135z"/>
		<path fill="#FFFFFF" d="M197.6,135.5c0,1.6,1,2.1,2.1,2.1c0.8,0,1.3-0.1,1.7-0.3l0.2,0.8c-0.4,0.2-1.1,0.4-2,0.4
			c-1.9,0-3-1.2-3-3.1s1.1-3.3,2.9-3.3c2,0,2.6,1.8,2.6,2.9c0,0.2,0,0.4,0,0.6H197.6z M200.9,134.6c0-0.7-0.3-1.8-1.6-1.8
			c-1.1,0-1.7,1-1.8,1.8H200.9z"/>
		<path fill="#FFFFFF" d="M204.7,130.7v1.4h1.6v0.9h-1.6v3.3c0,0.8,0.2,1.2,0.9,1.2c0.3,0,0.4,0,0.7-0.1v0.9c-0.2,0.1-0.6,0.1-1,0.1
			c-0.6,0-0.9-0.2-1.2-0.4c-0.3-0.3-0.4-0.9-0.4-1.6v-3.3h-1v-1h1V131L204.7,130.7z"/>
		<path fill="#FFFFFF" d="M208.8,130.4c0,0.3-0.2,0.7-0.7,0.7s-0.7-0.3-0.7-0.7c0-0.4,0.3-0.7,0.7-0.7
			C208.6,129.7,208.8,130,208.8,130.4z M207.6,138.3v-6.2h1.1v6.2H207.6z"/>
		<path fill="#FFFFFF" d="M210.6,133.8c0-0.7,0-1.1,0-1.7h1l0.1,1l0,0c0.3-0.6,1-1.1,2-1.1c0.9,0,2.2,0.6,2.2,2.7v3.7h-1.1v-3.5
			c0-1-0.3-1.8-1.4-1.8c-0.8,0-1.3,0.6-1.6,1.1c0,0.1-0.1,0.3-0.1,0.6v3.7h-1.1V133.8z"/>
		<path fill="#FFFFFF" d="M223,137.5c0,1.4-0.3,2.3-0.9,2.8c-0.6,0.6-1.4,0.8-2.2,0.8c-0.8,0-1.6-0.2-2-0.6l0.3-0.9
			c0.4,0.2,1,0.4,1.8,0.4c1.1,0,2-0.6,2-2.1v-0.7l0,0c-0.3,0.6-1,1-2,1c-1.6,0-2.7-1.3-2.7-3c0-2.1,1.3-3.3,2.8-3.3
			c1.1,0,1.7,0.6,1.9,1.1l0,0v-0.9h1c0,0.4,0,1,0,1.7V137.5z M221.9,134.6c0-0.2,0-0.3-0.1-0.6c-0.2-0.7-0.8-1.2-1.6-1.2
			c-1.1,0-1.9,0.9-1.9,2.3c0,1.2,0.7,2.2,1.8,2.2c0.7,0,1.3-0.4,1.6-1.1c0.1-0.2,0.1-0.4,0.1-0.6v-1.1H221.9z"/>
	</g>
</g>
<g>
	<g>
		<path fill="#82BC00" d="M47.4,203L47.4,203c-0.8,0-1.5-0.4-2.1-1l-7.8-8.6c-1.8,1.2-3.9,1.9-6,1.9c-6.3,0-11.5-5.7-11.5-12.6
			c0-7,5.1-12.6,11.5-12.6s11.5,5.7,11.5,12.6c0,2.3-0.6,4.6-1.7,6.6l7.8,8.6c0.5,0.6,0.8,1.3,0.9,2.1c0,0.8-0.2,1.6-0.7,2.2
			C48.8,202.7,48.1,203,47.4,203z M37.7,190.8l8.9,9.8c0.3,0.4,0.9,0.7,1.4,0.1c0.2-0.2,0.2-0.4,0.2-0.7c0-0.3-0.1-0.6-0.3-0.8
			l-8.9-9.8l0.4-0.7c1.2-1.8,1.8-3.9,1.8-6.1c0-5.9-4.3-10.6-9.7-10.6c-5.3,0-9.7,4.8-9.7,10.6c0,5.9,4.3,10.6,9.7,10.6
			c2,0,3.9-0.7,5.6-2L37.7,190.8z M31.5,191.4c-4.4,0-7.9-3.9-7.9-8.7c0-4.8,3.6-8.7,7.9-8.7s7.9,3.9,7.9,8.7
			C39.4,187.5,35.9,191.4,31.5,191.4z M31.5,175.9c-3.4,0-6.1,3-6.1,6.8c0,3.7,2.8,6.8,6.1,6.8c3.4,0,6.1-3,6.1-6.8
			C37.6,178.9,34.9,175.9,31.5,175.9z"/>
	</g>
</g>
<g>
	<g>
		<path fill="#82BC00" d="M50.3,235.4H22.7c-1.5,0-2.7-1.2-2.7-2.7c0-1.5,1.2-2.7,2.7-2.7h27.6c1.5,0,2.7,1.2,2.7,2.7
			C53,234.2,51.8,235.4,50.3,235.4z M22.7,231.5c-0.7,0-1.2,0.6-1.2,1.2c0,0.7,0.6,1.2,1.2,1.2h27.6c0.7,0,1.2-0.6,1.2-1.2
			c0-0.7-0.6-1.2-1.2-1.2H22.7z"/>
	</g>
	<g>
		<path fill="#82BC00" d="M50.3,246.7H22.7c-1.5,0-2.7-1.2-2.7-2.7c0-1.5,1.2-2.7,2.7-2.7h27.6c1.5,0,2.7,1.2,2.7,2.7
			C53,245.5,51.8,246.7,50.3,246.7z M22.7,242.8c-0.7,0-1.2,0.6-1.2,1.2c0,0.7,0.6,1.2,1.2,1.2h27.6c0.7,0,1.2-0.6,1.2-1.2
			c0-0.7-0.6-1.2-1.2-1.2H22.7z"/>
	</g>
	<g>
		<path fill="#82BC00" d="M50.3,258H22.7c-1.5,0-2.7-1.2-2.7-2.7c0-1.5,1.2-2.7,2.7-2.7h27.6c1.5,0,2.7,1.2,2.7,2.7
			C53,256.8,51.8,258,50.3,258z M22.7,254c-0.7,0-1.2,0.6-1.2,1.2c0,0.7,0.6,1.2,1.2,1.2h27.6c0.7,0,1.2-0.6,1.2-1.2
			c0-0.7-0.6-1.2-1.2-1.2H22.7z"/>
	</g>
</g>
<g>
	<g>
		<path fill="#FFFFFF" d="M36.5,291.9c0.6,0,1.2,0.3,1.7,0.8l12.5,14.9c0.9,1.1,0.5,2-0.9,2h-6.6c-0.7,0-1.6,0-2.6,0v14
			c0,1.4-1.2,2.6-2.6,2.6h-3c-1.4,0-2.6-1.2-2.6-2.6v-14c-0.9,0-1.9,0-2.6,0h-6.6c-1.4,0-1.8-0.9-0.9-2l12.5-14.9
			C35.3,292.2,35.9,291.9,36.5,291.9 M36.5,290c-1.2,0-2.3,0.5-3.1,1.5l-12.5,14.9c-1.3,1.6-0.9,2.9-0.7,3.4c0.2,0.5,1,1.7,3.1,1.7
			h6.6h0.7v12.1c0,2.5,2,4.5,4.5,4.5h3c2.5,0,4.5-2,4.5-4.5v-12.1h0.7h6.6c2.1,0,2.8-1.2,3.1-1.7c0.2-0.5,0.6-1.8-0.7-3.4
			l-12.5-14.9C38.8,290.5,37.7,290,36.5,290L36.5,290z"/>
	</g>
</g>
<g>
	<g>
		<path fill="#FFFFFF" d="M36.5,386.1c-0.6,0-1.2-0.3-1.7-0.8l-12.5-14.9c-0.9-1.1-0.5-2,0.9-2h6.6c0.7,0,1.6,0,2.6,0v-14
			c0-1.4,1.2-2.6,2.6-2.6h3c1.4,0,2.6,1.2,2.6,2.6v14c0.9,0,1.9,0,2.6,0h6.6c1.4,0,1.8,0.9,0.9,2l-12.5,14.9
			C37.7,385.8,37.1,386.1,36.5,386.1 M36.5,388c1.2,0,2.3-0.5,3.1-1.5l12.5-14.9c1.3-1.6,0.9-2.9,0.7-3.4c-0.2-0.5-1-1.7-3.1-1.7
			h-6.6h-0.7v-12.1c0-2.5-2-4.5-4.5-4.5h-3c-2.5,0-4.5,2-4.5,4.5v12.1h-0.7h-6.6c-2.1,0-2.8,1.2-3.1,1.7c-0.2,0.5-0.6,1.8,0.7,3.4
			l12.5,14.9C34.2,387.5,35.3,388,36.5,388L36.5,388z"/>
	</g>
</g>
<g>
	<g>
		<g>
			<path fill="#FFFFFF" d="M33,560h-3.6c-0.3,0-0.5-0.2-0.5-0.5c0-2.2-0.9-4.3-2.4-5.9c-1.6-1.6-3.7-2.5-5.9-2.5
				c-0.3,0-0.5-0.2-0.5-0.5V547c0-0.3,0.2-0.5,0.5-0.5c7.1,0,13,5.8,13,13c0,0.1-0.1,0.3-0.2,0.4C33.3,559.9,33.2,560,33,560z
				 M29.9,558.9h2.6c-0.3-6.2-5.3-11.1-11.4-11.4v2.6c2.3,0.1,4.5,1.1,6.1,2.7C28.8,554.5,29.7,556.7,29.9,558.9z"/>
		</g>
	</g>
	<g>
		<g>
			<path fill="#FFFFFF" d="M39.5,560h-3.6c-0.3,0-0.5-0.2-0.5-0.5c-0.1-8.1-6.7-14.8-14.8-14.8c-0.3,0-0.5-0.2-0.5-0.5v-3.6
				c0-0.3,0.2-0.5,0.5-0.5c10.7,0,19.4,8.7,19.5,19.5c0,0.1-0.1,0.3-0.2,0.4C39.7,559.9,39.6,560,39.5,560z M36.3,558.9h2.6
				c-0.3-9.7-8.2-17.6-17.9-17.9v2.6C29.3,543.9,36,550.6,36.3,558.9z"/>
		</g>
	</g>
	<g>
		<g>
			<path fill="#FFFFFF" d="M23.1,560c-1.7,0-3.1-1.4-3.1-3.1c0-1.7,1.4-3.1,3.1-3.1c1.7,0,3.1,1.4,3.1,3.1
				C26.1,558.6,24.7,560,23.1,560z M23.1,554.9c-1.1,0-2,0.9-2,2c0,1.1,0.9,2,2,2c1.1,0,2-0.9,2-2C25.1,555.8,24.2,554.9,23.1,554.9
				z"/>
		</g>
	</g>
</g>
<path fill="#FFFFFF" d="M34.2,420.8c1.1,0,2.2,0.5,2.9,1.2c0.9-0.2,1.7-0.5,2.5-0.9c-0.3,0.9-0.9,1.7-1.7,2.1
	c0.8-0.1,1.6-0.3,2.3-0.6c-0.5,0.8-1.2,1.5-2,2c0,0.2,0,0.3,0,0.5c0,5.1-4,11-11.3,11c-2.2,0-4.3-0.6-6.1-1.7c0.3,0,0.6,0.1,0.9,0.1
	c1.9,0,3.6-0.6,4.9-1.7c-1.7,0-3.2-1.1-3.7-2.7c0.2,0,0.5,0.1,0.7,0.1c0.4,0,0.7,0,1-0.1c-1.8-0.4-3.2-1.9-3.2-3.8c0,0,0,0,0,0
	c0.5,0.3,1.1,0.5,1.8,0.5c-1.1-0.7-1.8-1.9-1.8-3.2c0-0.7,0.2-1.4,0.5-1.9c2,2.3,4.9,3.9,8.2,4c-0.1-0.3-0.1-0.6-0.1-0.9
	C30.3,422.6,32,420.8,34.2,420.8 M39.6,421.1L39.6,421.1 M34.2,420c-2.6,0-4.8,2.1-4.8,4.7c-2.5-0.4-4.9-1.7-6.5-3.6
	c-0.2-0.2-0.4-0.3-0.7-0.3c0,0,0,0-0.1,0c-0.3,0-0.5,0.2-0.7,0.4c-0.4,0.7-0.7,1.5-0.7,2.4c0,0.7,0.2,1.4,0.4,2c0,0,0,0,0,0
	c-0.3,0.1-0.4,0.4-0.4,0.7l0,0.1c0,1.3,0.6,2.6,1.5,3.4c-0.1,0.2-0.2,0.5-0.1,0.7c0.4,1.2,1.2,2.2,2.3,2.7c-0.9,0.3-1.8,0.5-2.7,0.5
	c-0.3,0-0.6,0-0.8,0c0,0-0.1,0-0.1,0c-0.4,0-0.7,0.2-0.8,0.6c-0.1,0.4,0,0.8,0.3,1c2,1.2,4.2,1.9,6.5,1.9c4.6,0,7.4-2.1,9-3.9
	c2-2.2,3.1-5.1,3.1-8c0,0,0-0.1,0-0.1c0.7-0.6,1.3-1.2,1.8-1.9c0.2-0.3,0.2-0.7-0.1-1c-0.1-0.2-0.3-0.3-0.5-0.3
	c0.1-0.1,0.1-0.3,0.2-0.4c0-0.1,0.1-0.2,0.1-0.3c0-0.5-0.4-0.8-0.9-0.8h0h0c0,0,0,0,0,0l0,0l0,0c-0.2,0-0.3,0-0.4,0.1
	c-0.6,0.3-1.2,0.6-1.8,0.7C36.5,420.4,35.4,420,34.2,420L34.2,420z"/>
<path fill="#FFFFFF" d="M38.1,500.9c0.6,0,1,0.4,1,1v16.1c0,0.6-0.4,1-1,1H21.9c-0.6,0-1-0.4-1-1v-16.1c0-0.6,0.4-1,1-1H38.1
	 M38.1,500H21.9c-1.1,0-1.9,0.9-1.9,1.9v16.1c0,1.1,0.9,1.9,1.9,1.9h16.1c1.1,0,1.9-0.9,1.9-1.9v-16.1C40,500.9,39.1,500,38.1,500
	L38.1,500z M34.1,503.7c1,0,1.9,0.1,2.1,0.1v2.4l-1.4,0c-1.1,0-1.4,0.5-1.4,1.3v1.7h2.7l-0.4,2.7h-2.4v7h-2.8v-7h-2.4v-2.7h2.4v-2
	C30.6,504.9,32,503.7,34.1,503.7 M36.2,509.3L36.2,509.3 M34.1,502.7c-2.7,0-4.5,1.8-4.5,4.6v1.1h-1.4c-0.5,0-0.9,0.4-0.9,0.9v2.7
	c0,0.5,0.4,0.9,0.9,0.9h1.4v6.1c0,0.5,0.4,0.9,0.9,0.9h2.8c0.5,0,0.9-0.4,0.9-0.9V513h1.4c0.5,0,0.9-0.3,0.9-0.8l0.3-2.7
	c0-0.1,0-0.1,0-0.2c0-0.5-0.4-0.9-0.9-0.9h0h-1.8v-0.8c0-0.2,0-0.3,0-0.3c0,0,0.2,0,0.4,0l1.4,0c0.5,0,0.9-0.4,0.9-0.9v-2.4
	c0-0.5-0.3-0.9-0.8-0.9C36,502.8,35.1,502.7,34.1,502.7L34.1,502.7z"/>
<path fill="#FFFFFF" d="M30.4,473.3c-0.1,0-0.1,0-0.2-0.1c-0.1-0.1-0.2-0.2-0.2-0.4v-7.3c0-0.1,0.1-0.3,0.2-0.4
	c0.1-0.1,0.3-0.1,0.4,0l6.8,3.6c0.1,0.1,0.2,0.2,0.2,0.4c0,0.2-0.1,0.3-0.2,0.4l-6.8,3.6C30.5,473.3,30.5,473.3,30.4,473.3z
	 M30.8,466.3v5.9l5.5-2.9L30.8,466.3z M33,479C33,479,33,479,33,479c-0.3,0-6.6-0.1-8.6-0.3c-0.1,0-0.2,0-0.4-0.1
	c-0.7-0.1-1.8-0.2-2.7-1.2c-0.8-0.9-1.1-2.7-1.1-2.8c0-0.1-0.3-2.1-0.3-4.2v-2c0-2.1,0.2-4.1,0.3-4.2c0-0.1,0.3-1.9,1.1-2.8
	c1-1,2-1.1,2.6-1.2l0.2,0c3.5-0.3,8.8-0.3,8.9-0.3c0.1,0,5.4,0,8.8,0.3l0.2,0c0.6,0.1,1.6,0.2,2.6,1.2c0.8,0.9,1.1,2.7,1.1,2.8
	c0,0.1,0.3,2.1,0.3,4.2v2c0,2.1-0.2,4.1-0.3,4.2c0,0.1-0.3,1.9-1.1,2.8c-1,1-2,1.1-2.6,1.2l-0.2,0C38.3,479,33.1,479,33,479z
	 M33,460.8c-0.1,0-5.3,0-8.8,0.3l-0.2,0c-0.5,0.1-1.3,0.1-2.1,0.9c-0.5,0.6-0.8,1.9-0.9,2.3c0,0-0.2,2.1-0.2,4.1v2
	c0,2,0.2,4.1,0.2,4.1c0.1,0.4,0.3,1.8,0.9,2.3c0.7,0.7,1.6,0.9,2.2,0.9c0.1,0,0.3,0,0.4,0.1c1.9,0.2,8.3,0.3,8.5,0.3
	c0.1,0,5.3,0,8.8-0.3l0.2,0c0.5-0.1,1.3-0.1,2.1-0.9c0.5-0.6,0.8-1.9,0.9-2.3c0,0,0.2-2.1,0.2-4.1v-2c0-2-0.2-4.1-0.2-4.1
	c-0.1-0.4-0.3-1.8-0.9-2.3c-0.8-0.8-1.6-0.9-2.1-1l-0.2,0C38.3,460.8,33.1,460.8,33,460.8z M30.4,473.3c-0.1,0-0.1,0-0.2-0.1
	c-0.1-0.1-0.2-0.2-0.2-0.4l0-7.3c0-0.1,0.1-0.3,0.2-0.4c0.1-0.1,0.3-0.1,0.4,0l6.8,3.6c0.1,0.1,0.2,0.2,0.2,0.4
	c0,0.2-0.1,0.3-0.2,0.4l-6.8,3.6C30.5,473.3,30.5,473.3,30.4,473.3z M30.8,466.3l0,5.9l5.5-2.9L30.8,466.3z"/>
<polygon fill="#E4E4E6" points="20,602 31.5,590 43,602 "/>
<polygon fill="#82BC00" points="43,635 31.5,647 20,635 "/>
</svg>
